<svg xmlns="http://www.w3.org/2000/svg" fill="#888888" width="200" height="200" viewBox="0 0 1024 1024"> <path d="M960 704a21.333333 21.333333 0 0 1 3.84 42.325333l-3.84 0.341334h-896a21.333333 21.333333 0 0 1-3.84-42.325334l3.84-0.341333h896z m0-213.333333a21.333333 21.333333 0 0 1 3.84 42.325333l-3.84 0.341333h-896a21.333333 21.333333 0 0 1-3.84-42.325333l3.84-0.341333h896z m0-213.333334a21.333333 21.333333 0 0 1 3.84 42.325334l-3.84 0.341333h-896a21.333333 21.333333 0 0 1-3.84-42.325333L64 277.333333h896z" /> </svg>