<svg viewBox="0 0 1024 1024" xmlns="http://www.w3.org/2000/svg" width="200" height="200"> <path d="M741.577396 93.504778c198.869592 146.910037 250.780404 440.827595 95.047967 648.470845l146.958779 146.958779c26.320975 34.363496 26.320975 78.231788 0 95.047967a68.434536 68.434536 0 0 1-95.047966 0l-146.95878-146.958779c-190.095933 138.185121-440.876338 121.368942-605.382433-43.137154-181.322275-181.322275-181.322275-475.239833 0-657.293247C300.701059-27.864164 559.523983-44.729086 741.577396 93.504778zM188.105775 197.326403C41.146996 344.187697 41.146996 586.291928 188.105775 733.153222c69.458129 69.458129 164.506096 112.595284 268.327721 112.595284s198.869592-43.137154 268.327722-112.595284c146.958779-146.958779 146.958779-388.965525 0-535.924304-147.689917-146.958779-389.696663-146.958779-536.655443 0z" fill="#8A8A8A"/> <path d="M532.47187 682.02229c48.98626-95.047967 12.429349-223.728291-72.382683-282.950485 5.849106 25.589837-1.462276 92.123414-38.750324 133.798291 8.04252-43.137154-12.429349-70.920406-12.42935-70.920406s-7.311382 39.481463-34.363496 78.231788c-24.858699 35.825772-41.674878 74.576097-9.504796 141.109674-102.359349-57.759918-129.411462-111.864145-114.05756-186.440242 10.967073-54.835365 53.373089-99.434796 57.02878-154.270162 16.085041 29.245528 17.547317 49.717398 19.740731 79.694065 50.448536-62.146747 103.090487-144.765365 91.392276-220.803738 0 0 95.779105 29.976666 134.52943 176.935445 22.665284-20.47187 20.47187-62.146747 9.504796-87.005446 34.363496 25.589837 229.577396 245.662437-30.707804 392.621216z" fill="#d81e06"/> </svg>